<svg width="44" height="38" viewBox="0 0 44 38" fill="none" xmlns="http://www.w3.org/2000/svg">
<path d="M22.2495 1.12535C12.1966 0.989567 3.98954 9.1966 4.12532 19.2496C4.25938 28.8909 12.1098 36.7413 21.7511 36.8754C31.8058 37.0129 40.0111 28.8058 39.8736 18.7528C39.7413 9.1098 31.8909 1.25941 22.2495 1.12535ZM33.1138 29.2484C33.0795 29.2854 33.0376 29.3145 32.9909 29.3334C32.9441 29.3524 32.8938 29.3609 32.8435 29.3583C32.7931 29.3557 32.744 29.342 32.6995 29.3183C32.655 29.2945 32.6163 29.2613 32.5861 29.2209C31.8174 28.2152 30.8761 27.3542 29.806 26.678C27.6181 25.2738 24.8457 24.5003 22.0003 24.5003C19.1549 24.5003 16.3826 25.2738 14.1946 26.678C13.1246 27.3539 12.1832 28.2146 11.4145 29.22C11.3843 29.2604 11.3456 29.2937 11.3011 29.3174C11.2567 29.3411 11.2075 29.3548 11.1572 29.3574C11.1068 29.3601 11.0565 29.3516 11.0098 29.3326C10.9631 29.3136 10.9211 29.2846 10.8869 29.2475C8.36519 26.5254 6.93676 22.9683 6.87532 19.2582C6.73524 10.8956 13.5974 3.89597 21.9634 3.87535C30.3294 3.85472 37.1253 10.6481 37.1253 19.0004C37.1282 22.8 35.6953 26.4604 33.1138 29.2484Z" fill="white"/>
<path d="M22.0003 9.37535C20.3056 9.37535 18.7734 10.0104 17.6845 11.1646C16.5957 12.3187 16.0517 13.9146 16.1746 15.6273C16.4238 19.0003 19.0372 21.7503 22.0003 21.7503C24.9634 21.7503 27.5716 19.0003 27.826 15.6282C27.9532 13.9318 27.4135 12.3505 26.3066 11.1749C25.2135 10.0147 23.6838 9.37535 22.0003 9.37535Z" fill="white"/>
</svg>
